# xmcd
#
# Track frame offsets:
# 150
# 24817
# 42419
# 55008
# 80836
# 100567
# 112066
# 125144
# 145905
# 159293
#
# Disc length: 2774 seconds
#
# Revision: 0
# Processed by: cddbd v1.5.1PL2 Copyright (c) Steve Scherf et al.
# Submitted via: Audion 3.0.2 (http://www.panic.com/audion/)
#
DISCID=7e0ad40a
DTITLE=Direct - fixflat
DYEAR=1900
DGENRE=
TTITLE0=q
TTITLE1=q
TTITLE2=q
TTITLE3=q
TTITLE4=q
TTITLE5=q
TTITLE6=q
TTITLE7=q
TTITLE8=q
TTITLE9=q
EXTD=
EXTT0=
EXTT1=
EXTT2=
EXTT3=
EXTT4=
EXTT5=
EXTT6=
EXTT7=
EXTT8=
EXTT9=
PLAYORDER=
